<?xml version="1.0" standalone="no"?><!DOCTYPE svg PUBLIC "-//W3C//DTD SVG 1.1//EN" "http://www.w3.org/Graphics/SVG/1.1/DTD/svg11.dtd"><svg t="1645521545430" class="icon" viewBox="0 0 1024 1024" version="1.1" xmlns="http://www.w3.org/2000/svg" p-id="4634" width="64" height="64" xmlns:xlink="http://www.w3.org/1999/xlink"><defs><style type="text/css"></style></defs><path d="M968.411429 595.565714L491.52 118.674286c-6.765714-6.765714-15.725714-10.605714-25.234286-10.788572L109.348571 101.851429c-9.874286 0.182857-19.382857 3.657143-26.514285 10.788571-7.131429 6.948571-10.971429 16.457143-10.788572 26.331429l6.034286 356.937142c0.182857 9.508571 4.022857 18.468571 10.788571 25.234286l476.891429 476.891429c7.131429 7.131429 16.457143 10.788571 25.782857 10.788571 9.325714 0 18.651429-3.657143 25.782857-10.788571l351.085715-350.72c6.948571-6.948571 10.788571-16.091429 10.788571-25.782857s-4.022857-19.2-10.788571-25.965715z m-376.685715 324.937143l-440.685714-440.685714L145.92 175.542857l304.457143 5.302857 440.685714 440.502857-299.337143 299.154286z" fill="#ffffff" p-id="4635"></path><path d="M360.777143 286.902857c-62.354286 0-113.188571 50.834286-113.188572 113.188572s50.834286 113.188571 113.188572 113.188571 113.188571-50.834286 113.188571-113.188571-50.834286-113.188571-113.188571-113.188572z m0 153.234286a40.045714 40.045714 0 1 1-0.018286-80.073143 40.045714 40.045714 0 0 1 0.018286 80.073143zM528.64 701.677714l145.499429-137.801143 50.285714 53.101715-145.499429 137.801143z" fill="#ffffff" p-id="4636"></path></svg>